<?xml version="1.0" encoding="iso-8859-1"?>
<!-- Generator: Adobe Illustrator 13.0.0, SVG Export Plug-In . SVG Version: 6.00 Build 14948)  -->
<!DOCTYPE svg PUBLIC "-//W3C//DTD SVG 1.1//EN" "http://www.w3.org/Graphics/SVG/1.1/DTD/svg11.dtd">
<svg version="1.1" xmlns="http://www.w3.org/2000/svg" xmlns:xlink="http://www.w3.org/1999/xlink" x="0px" y="0px" width="100px"
	 height="100px" viewBox="0 0 100 100" style="enable-background:new 0 0 100 100;" xml:space="preserve">
<g id="Layer_1">
	<circle cx="49.5" cy="49.5" r="47.584"/>
	<g>
		<defs>
			<path id="SVGID_1_" d="M49.738,86.357c-20.146,0-36.536-16.389-36.536-36.538c0-20.145,16.39-36.535,36.536-36.535
				c20.145,0,36.536,16.39,36.536,36.535C86.273,69.969,69.885,86.357,49.738,86.357L49.738,86.357z"/>
		</defs>
		<clipPath id="SVGID_2_">
			<use xlink:href="#SVGID_1_"  style="overflow:visible;"/>
		</clipPath>
		<path style="clip-path:url(#SVGID_2_);stroke:#FFFFFF;stroke-width:6;" d="M13.149,63.763l29.083-36.669L99.64,43.278
			c0,0-33.383,53.614-32.118,53.108s-49.567-8.346-49.567-8.346L13.149,63.763z"/>
		<path style="clip-path:url(#SVGID_2_);fill:#FFFFFF;stroke:#000000;stroke-width:6;" d="M14.414,68.568l29.083-36.67
			l57.408,16.186c0,0-33.383,53.613-32.118,53.107s-49.567-8.346-49.567-8.346L14.414,68.568z"/>
	</g>
	<path style="fill:#FFFFFF;" d="M49.738,6.318c24.028,0,43.505,19.478,43.505,43.505c0,24.026-19.478,43.505-43.505,43.505
		c-24.027,0-43.505-19.479-43.505-43.505C6.233,25.796,25.71,6.318,49.738,6.318 M49.738,11.756
		c-20.991,0-38.066,17.077-38.066,38.067c0,20.989,17.076,38.067,38.066,38.067c20.991,0,38.067-17.078,38.067-38.067
		C87.805,28.833,70.729,11.756,49.738,11.756L49.738,11.756z"/>
</g>
<g id="shovel">
	<path style="fill:#FFFFFF;stroke:#000000;stroke-width:3;" d="M75.281,3.308c2.328-1.63,4.909,0.433,4.909,0.433
		s2.791,1.492,3.177,3.032S71.144,33.003,71.144,33.003s-1.193,3.23-0.8,5.391c0.605,3.32,5.404,6.146,6.015,8.448
		c0.669,2.527-0.211,4.641-0.211,4.641s-10.203,23.68-10.973,25.22c-0.771,1.542-1.927,7.508-9.241,3.851
		c-7.315-3.658-7.315-3.658-7.315-3.658s-7.701-3.465-6.353-10.395c1.347-6.932,5.621-22.421,6.737-25.219
		c1.042-2.614,1.191-5.588,7.893-5.392c6.354,0.186,6.93-2.31,8.085-5.39c1.157-3.08,7.508-22.717,7.508-22.717
		S73.355,4.656,75.281,3.308z"/>
	<path d="M46.99,71.475c0,0,8.714-17.805,10.441-22.034c0.885-2.165,2.32-4.267,5.42-3.097c3.156,1.191,4.287,1.787,4.287,1.787
		s2.884,1.048,1.729,3.709c-1.158,2.66-9.604,23.6-9.257,23.83c0.348,0.232,2.893-2.545,3.819-4.625
		c0.925-2.084,7.776-17.549,7.776-17.549s2.245-4.276-0.489-6.632c-2.437-2.099-4.772-3.517-6.94-4.28
		c-3.586-1.263-8.284-2.362-9.673-1.552c-1.388,0.809-1.979,2.644-2.474,3.866c-0.932,2.294-5.628,18.711-5.904,19.857
		C45.309,66.482,44.356,69.283,46.99,71.475z"/>
	<path style="fill:#FFFFFF;stroke:#000000;stroke-width:1.0173;" d="M41.117,73.636c2.034-1.78,3.306-0.922,5.04-1.626
		c2.172-0.882,1.603-0.341,3.638,0.677c2.035,1.017,3.154-0.759,4.164,0.521c3.815,4.832,6.066,1.349,6.91,3.218
		c1.113,2.468-1.392,3.951,1.222,5.123c2.285,1.025-0.921,2.493-0.921,2.493l-7.371-1.896l-12.327-6.062L41.117,73.636z"/>
	<path style="fill:#FFFFFF;" d="M38.841,73.636c0,0,3.631-0.433,6.341,1.084c2.71,1.518,16.421,6.991,17.722,8.671
		c1.328,1.716-8.563,1.464-8.563,1.464s-14.795-8.294-14.904-8.076S38.841,73.636,38.841,73.636z"/>
</g>
<g id="sand">
	<circle cx="44" cy="42.667" r="1.167"/>
	<circle cx="38.167" cy="54.667" r="1.167"/>
	<circle cx="75.75" cy="63.75" r="1.167"/>
	<circle cx="81.333" cy="53.333" r="1.167"/>
	<circle cx="28.667" cy="67.167" r="1.167"/>
	<circle cx="40" cy="79.834" r="1.167"/>
	<circle cx="51.167" cy="78" r="1.167"/>
	<circle cx="37.5" cy="64.417" r="0.583"/>
	<circle cx="30.25" cy="60" r="0.583"/>
	<circle cx="34.667" cy="72.417" r="0.583"/>
	<circle cx="81.999" cy="59.583" r="0.583"/>
	<circle cx="73.5" cy="70.75" r="0.583"/>
	<circle cx="39.833" cy="48.25" r="0.583"/>
	<circle cx="57.834" cy="78.833" r="0.583"/>
	<circle cx="46.667" cy="74.667" r="0.583"/>
</g>
</svg>
